<?xml version="1.0" encoding="UTF-8"?>
<svg id="Layer_1" data-name="Layer 1" xmlns="http://www.w3.org/2000/svg" viewBox="0 0 297.91 360.27">
  <defs>
    <style>
      .cls-1 {
        fill: #02012d;
      }

      .cls-2 {
        fill: #fdaa44;
      }
    </style>
  </defs>
  <path class="cls-1" d="M288.64,154.92c-7.69-9.32-19.46-14.3-31.54-14.3h-126.12c-29.26,0-52.98-23.72-52.98-52.98v-3.76c0-1.42-.56-2.84-1.68-3.7-2-1.53-4.69-1.13-6.18.67L8.32,156.08c-.13.15-.22.32-.32.48C2.79,163.49-.22,172.16.01,181.54c.54,21.83,19.19,38.89,41.03,38.89h89.84c28.59,0,49.63,26.8,42.83,54.57l-19.27,78.74c-1.33,5.43,5.62,8.9,9.16,4.58l125.24-152.47c11.89-14.48,12.36-35.72-.2-50.93Z"/>
  <path class="cls-2" d="M94.2,62.33c34.37,9.48,40.96,16.09,50.46,50.46.54,1.93,2.29,3.27,4.3,3.27s3.77-1.34,4.3-3.27c9.49-34.37,16.09-40.96,50.46-50.46,1.93-.54,3.27-2.29,3.27-4.3s-1.34-3.77-3.27-4.3c-34.37-9.49-40.97-16.1-50.46-50.46-.54-1.93-2.29-3.27-4.3-3.27s-3.77,1.34-4.3,3.27c-9.48,34.36-16.09,40.96-50.46,50.46-1.93.54-3.27,2.29-3.27,4.3s1.34,3.77,3.27,4.3Z"/>
</svg>